<svg width="29" height="23" viewBox="0 0 29 23" fill="none" xmlns="http://www.w3.org/2000/svg">
<path d="M9.28004 22.93C19.8888 22.93 25.6938 14.1325 25.6938 6.51623C25.6938 6.26873 25.6938 6.02123 25.6825 5.77373C26.8075 4.96373 27.7863 3.93998 28.5625 2.78123C27.5275 3.24248 26.4138 3.54623 25.2438 3.69248C26.4363 2.98373 27.3475 1.84748 27.7863 0.497476C26.6725 1.16123 25.435 1.63373 24.1188 1.89248C23.0613 0.767477 21.565 0.0699768 19.9113 0.0699768C16.7275 0.0699768 14.14 2.65748 14.14 5.84123C14.14 6.29123 14.1963 6.72998 14.2863 7.15748C9.49379 6.92123 5.24129 4.61498 2.39504 1.12748C1.90004 1.98248 1.61879 2.97248 1.61879 4.02998C1.61879 6.03248 2.64254 7.79873 4.18379 8.83373C3.23879 8.79998 2.35004 8.54123 1.57379 8.11373C1.57379 8.13623 1.57379 8.15873 1.57379 8.19248C1.57379 10.9825 3.56504 13.3225 6.19754 13.8512C5.71379 13.9862 5.20754 14.0537 4.67879 14.0537C4.30754 14.0537 3.94754 14.02 3.59879 13.9525C4.33004 16.2475 6.46754 17.9125 8.98754 17.9575C7.00754 19.51 4.52129 20.4325 1.82129 20.4325C1.36004 20.4325 0.898791 20.41 0.448792 20.3537C2.99129 21.9737 6.02879 22.93 9.28004 22.93Z" fill="white"/>
</svg>
